<?xml version="1.0" encoding="utf-8"?>
<!-- Generator: Adobe Illustrator 23.0.3, SVG Export Plug-In . SVG Version: 6.00 Build 0)  -->
<svg version="1.1" xmlns="http://www.w3.org/2000/svg" xmlns:xlink="http://www.w3.org/1999/xlink" x="0px" y="0px"
	 viewBox="0 0 366 78" style="enable-background:new 0 0 366 78;" xml:space="preserve">
<style type="text/css">
	.st0{fill:#FFFFFF;}
	.st1{fill:#FFCC00;}
	.st2{fill:#FF3366;}
	.st3{fill:#9999FF;}
	.st4{fill:#A1E077;}
</style>
<g id="bottle-red">
	<g>
		<g>
			<path class="st0" d="M27.79,77.06l0-1.06c11.58,0,18.34-1.68,21.94-5.43c3.34-3.49,3.86-8.64,4.5-15.17l0.07-0.69
				c0.81-8.12-2.4-16.21-8.4-21.11c-5.58-4.56-7.65-9.47-8.41-12.8c-0.59-2.6-0.5-4.63-0.39-5.61l-11.86,0.01l0.01-0.01h-6.81
				c0.11,0.98,0.2,3.01-0.39,5.61c-0.76,3.32-2.83,8.24-8.4,12.8c-5.99,4.9-9.2,12.99-8.39,21.11l0.07,0.69
				c0.65,6.53,1.17,11.68,4.51,15.17c3.6,3.75,10.36,5.42,21.94,5.42v1.06c-11.89,0-18.89-1.77-22.7-5.75
				c-3.6-3.75-4.13-9.07-4.8-15.8L0.2,54.81c-0.85-8.47,2.51-16.92,8.77-22.04c5.34-4.37,7.32-9.05,8.04-12.21
				c0.77-3.4,0.3-5.77,0.29-5.8l-0.13-0.64H30.3l-0.01,0l8.07,0l-0.13,0.64c0,0.02-0.48,2.44,0.31,5.85
				c0.73,3.14,2.71,7.81,8.03,12.15c6.26,5.12,9.63,13.56,8.78,22.04l-0.07,0.69c-0.67,6.73-1.2,12.05-4.79,15.8
				C46.68,75.28,39.68,77.05,27.79,77.06z"/>
		</g>
		<g>
			<g>
				<ellipse class="st1" cx="27.76" cy="13.45" rx="10.92" ry="3.55"/>
				<path class="st0" d="M27.76,17.53c-5.55,0-11.45-1.43-11.45-4.08c0-2.65,5.9-4.08,11.45-4.08s11.45,1.43,11.45,4.08
					C39.22,16.1,33.32,17.53,27.76,17.53z M27.76,10.43c-6.44,0-10.39,1.76-10.39,3.02s3.95,3.02,10.39,3.02s10.39-1.76,10.39-3.02
					S34.2,10.43,27.76,10.43z"/>
			</g>
			<g>
				<polygon class="st1" points="14.3,5.83 17.02,13.52 38.52,13.48 41.28,5.83 				"/>
			</g>
			<g>
				<ellipse class="st1" cx="27.76" cy="5.86" rx="13.49" ry="4.38"/>
				<path class="st0" d="M27.76,10.77c-6.8,0-14.02-1.72-14.02-4.92c0-3.19,7.22-4.92,14.02-4.92s14.02,1.72,14.02,4.92
					C41.79,9.05,34.56,10.77,27.76,10.77z M27.76,2C20.13,2,14.8,4.04,14.8,5.86s5.32,3.85,12.96,3.85s12.96-2.03,12.96-3.85
					S35.4,2,27.76,2z"/>
			</g>
		</g>
		<g>
			<path class="st2" d="M27.79,74.1c22.84-0.01,23.17-7.36,24.4-19.65c0.34-3.37-0.07-6.64-1.07-9.63l0,0
				c-1.98-0.69-4.03-1.19-6.11-1.5c-6.22-0.91-12.58-0.08-18.65,1.53c-4.15,1.1-8.22,2.58-12.48,3.15
				c-3.38,0.45-6.84,0.3-10.18-0.41l0,0c-0.44,2.19-0.56,4.5-0.33,6.85C4.6,66.74,4.94,74.09,27.78,74.09"/>
		</g>
	</g>
</g>
<g id="bottle-blue">
	<g>
		<g>
			<path class="st0" d="M183.08,77.06l0-1.06c11.58,0,18.34-1.68,21.94-5.43c3.34-3.49,3.86-8.64,4.5-15.17l0.07-0.69
				c0.81-8.12-2.4-16.21-8.4-21.11c-5.58-4.56-7.65-9.47-8.41-12.8c-0.59-2.6-0.5-4.63-0.39-5.61l-11.86,0.01l0.01-0.01h-6.81
				c0.11,0.98,0.2,3.01-0.39,5.61c-0.76,3.32-2.83,8.24-8.4,12.8c-5.99,4.9-9.2,12.99-8.39,21.11l0.07,0.69
				c0.65,6.53,1.17,11.68,4.51,15.17c3.6,3.75,10.36,5.42,21.94,5.42v1.06c-11.89,0-18.89-1.77-22.7-5.75
				c-3.6-3.75-4.13-9.07-4.8-15.8l-0.07-0.69c-0.85-8.47,2.51-16.92,8.77-22.04c5.34-4.37,7.32-9.05,8.04-12.21
				c0.77-3.4,0.3-5.77,0.29-5.8l-0.13-0.64h13.12l-0.01,0l8.07,0l-0.13,0.64c0,0.02-0.48,2.44,0.31,5.85
				c0.73,3.14,2.71,7.81,8.03,12.15c6.26,5.12,9.63,13.56,8.78,22.04l-0.07,0.69c-0.67,6.73-1.2,12.05-4.79,15.8
				C201.97,75.28,194.97,77.05,183.08,77.06z"/>
		</g>
		<g>
			<g>
				<ellipse class="st1" cx="183.06" cy="13.45" rx="10.92" ry="3.55"/>
				<path class="st0" d="M183.06,17.53c-5.55,0-11.45-1.43-11.45-4.08c0-2.65,5.9-4.08,11.45-4.08c5.55,0,11.45,1.43,11.45,4.08
					C194.51,16.1,188.61,17.53,183.06,17.53z M183.06,10.43c-6.44,0-10.39,1.76-10.39,3.02s3.95,3.02,10.39,3.02
					c6.44,0,10.39-1.76,10.39-3.02S189.5,10.43,183.06,10.43z"/>
			</g>
			<g>
				<polygon class="st1" points="169.59,5.83 172.31,13.52 193.82,13.48 196.57,5.83 				"/>
			</g>
			<g>
				<ellipse class="st1" cx="183.06" cy="5.86" rx="13.49" ry="4.38"/>
				<path class="st0" d="M183.06,10.77c-6.8,0-14.02-1.72-14.02-4.92c0-3.19,7.22-4.92,14.02-4.92s14.02,1.72,14.02,4.92
					C197.08,9.05,189.85,10.77,183.06,10.77z M183.06,2c-7.64,0-12.96,2.03-12.96,3.85s5.32,3.85,12.96,3.85s12.96-2.03,12.96-3.85
					S190.69,2,183.06,2z"/>
			</g>
		</g>
		<g>
			<path class="st3" d="M183.08,74.1c22.84-0.01,23.17-7.36,24.4-19.65c0.34-3.37-0.07-6.64-1.07-9.63l0,0
				c-2.33,1.3-4.63,3.41-8.8,3.53c-6.28,0.19-9.58-5.72-16.17-5.41c-4.29,0.2-8.02,4.49-12.28,5.06c-3.38,0.45-6.81-0.52-9.73-2.39
				l-0.45,1.98c-0.44,2.19-0.56,4.5-0.33,6.85c1.23,12.29,1.57,19.64,24.41,19.64"/>
		</g>
	</g>
</g>
<g id="bottle-green">
	<g>
		<g>
			<path class="st0" d="M338.37,77.06l0-1.06c11.58,0,18.34-1.68,21.94-5.43c3.34-3.49,3.86-8.64,4.5-15.17l0.07-0.69
				c0.81-8.12-2.4-16.21-8.4-21.11c-5.58-4.56-7.65-9.47-8.41-12.8c-0.59-2.6-0.5-4.63-0.39-5.61l-11.86,0.01l0.01-0.01h-6.81
				c0.11,0.98,0.2,3.01-0.39,5.61c-0.76,3.32-2.83,8.24-8.4,12.8c-5.99,4.9-9.2,12.99-8.39,21.11l0.07,0.69
				c0.65,6.53,1.17,11.68,4.51,15.17c3.6,3.75,10.36,5.42,21.94,5.42v1.06c-11.89,0-18.89-1.77-22.7-5.75
				c-3.6-3.75-4.13-9.07-4.8-15.8l-0.07-0.69c-0.85-8.47,2.51-16.92,8.77-22.04c5.34-4.37,7.32-9.05,8.04-12.21
				c0.77-3.4,0.3-5.77,0.29-5.8l-0.13-0.64h13.12l-0.01,0l8.07,0l-0.13,0.64c0,0.02-0.48,2.44,0.31,5.85
				c0.73,3.14,2.71,7.81,8.03,12.15c6.26,5.12,9.63,13.56,8.78,22.04l-0.07,0.69c-0.67,6.73-1.2,12.05-4.79,15.8
				C357.26,75.28,350.26,77.05,338.37,77.06z"/>
		</g>
		<g>
			<g>
				<ellipse class="st1" cx="338.35" cy="13.45" rx="10.92" ry="3.55"/>
				<path class="st0" d="M338.35,17.53c-5.55,0-11.45-1.43-11.45-4.08c0-2.65,5.9-4.08,11.45-4.08s11.45,1.43,11.45,4.08
					C349.8,16.1,343.9,17.53,338.35,17.53z M338.35,10.43c-6.44,0-10.39,1.76-10.39,3.02s3.95,3.02,10.39,3.02
					s10.39-1.76,10.39-3.02S344.79,10.43,338.35,10.43z"/>
			</g>
			<g>
				<polygon class="st1" points="324.89,5.83 327.6,13.52 349.11,13.48 351.87,5.83 				"/>
			</g>
			<g>
				<ellipse class="st1" cx="338.35" cy="5.86" rx="13.49" ry="4.38"/>
				<path class="st0" d="M338.35,10.77c-6.8,0-14.02-1.72-14.02-4.92c0-3.19,7.22-4.92,14.02-4.92s14.02,1.72,14.02,4.92
					C352.37,9.05,345.15,10.77,338.35,10.77z M338.35,2c-7.64,0-12.96,2.03-12.96,3.85s5.32,3.85,12.96,3.85
					c7.64,0,12.96-2.03,12.96-3.85S345.99,2,338.35,2z"/>
			</g>
		</g>
		<g>
			<path class="st4" d="M338.35,74.1c-22.84-0.01-23.17-7.36-24.4-19.65c-0.34-3.37,0.07-6.64,1.07-9.63l0,0
				c1.98-0.69,4.09-0.94,6.11-1.5c8.15-2.24,17.25-0.23,22.82,2.67c6.22,3.23,15.15,2.32,18.49,1.61l0,0
				c0.44,2.19,0.56,4.5,0.33,6.85c-1.23,12.29-1.57,19.64-24.41,19.64"/>
		</g>
	</g>
</g>
</svg>
